<svg xmlns="http://www.w3.org/2000/svg" viewBox="0 0 3905 5857"><filter id="b"><feGaussianBlur stdDeviation="12" /></filter><path d="M0 0h3905v5857H0z" fill="#686d6d" /><g filter="url(#b)" transform="scale(22.878906) translate(0.5 0.5)"><g transform="translate(101.752929 18.631943) rotate(-138.936725) scale(126.343937 49.731181)"><ellipse fill="#cef0ff" fill-opacity=".501961" cx="0" cy="0" rx="1" ry="1" /></g><ellipse fill="#373200" fill-opacity=".501961" cx="0" cy="95" rx="78" ry="78" /><g transform="translate(102.884676 175.628153) rotate(72.805622) scale(16.632597 77.339108)"><ellipse fill="#000" fill-opacity=".501961" cx="0" cy="0" rx="1" ry="1" /></g><ellipse fill="#000" fill-opacity=".501961" cx="47" cy="250" rx="108" ry="14" /><g transform="translate(83.978668 104.001797) rotate(279.098208) scale(27.929547 37.947024)"><ellipse fill="#a79a9d" fill-opacity=".501961" cx="0" cy="0" rx="1" ry="1" /></g><g transform="translate(53.558029 147.055193) rotate(263.355485) scale(12.645660 56.348399)"><ellipse fill="#03120b" fill-opacity=".501961" cx="0" cy="0" rx="1" ry="1" /></g><ellipse fill="#9bbbfb" fill-opacity=".501961" cx="96" cy="34" rx="37" ry="37" /><path d="M0 0h3905v5857H0z" fill="#26363a" /></g></svg>