<svg xmlns="http://www.w3.org/2000/svg" viewBox="0 0 3179 2119"><filter id="b"><feGaussianBlur stdDeviation="12" /></filter><path d="M0 0h3179v2119H0z" fill="#343a3a" /><g filter="url(#b)" transform="scale(12.417969) translate(0.5 0.5)"><g transform="translate(61.662286 42.200658) rotate(283.890308) scale(43.424452 135.027021)"><ellipse fill="#82857f" fill-opacity=".501961" cx="0" cy="0" rx="1" ry="1" /></g><g transform="translate(110.079108 150.951369) rotate(83.983731) scale(47.444148 196.494678)"><ellipse fill="#00010b" fill-opacity=".501961" cx="0" cy="0" rx="1" ry="1" /></g><g transform="translate(96.417636 5.182912) rotate(298.372326) scale(41.618573 76.976916)"><ellipse fill="#26617e" fill-opacity=".501961" cx="0" cy="0" rx="1" ry="1" /></g><g transform="translate(80.698457 74.959341) rotate(-87.526042) scale(17.386851 130.974376)"><ellipse fill="#9b7255" fill-opacity=".501961" cx="0" cy="0" rx="1" ry="1" /></g><g transform="translate(243.373745 41.063617) rotate(279.608266) scale(45.964698 83.639540)"><ellipse fill="#0f211f" fill-opacity=".501961" cx="0" cy="0" rx="1" ry="1" /></g><path fill="#ad7d5f" fill-opacity=".501961" d="M109 73l1e2 27 8-38z" /><g transform="translate(89.415752 102.038654) rotate(267.472106) scale(11.426854 91.610788)"><ellipse fill="#4d2d06" fill-opacity=".501961" cx="0" cy="0" rx="1" ry="1" /></g><path d="M0 0h3179v2119H0z" fill="#011600" /></g></svg>