<svg xmlns="http://www.w3.org/2000/svg" viewBox="0 0 2619 3929"><filter id="b"><feGaussianBlur stdDeviation="12" /></filter><path d="M0 0h2619v3929H0z" fill="#71888e" /><g filter="url(#b)" transform="scale(15.347656) translate(0.5 0.5)"><g transform="translate(76.308914 32.234606) rotate(266.771556) scale(58.913696 169.000000)"><ellipse fill="#8fe2ff" fill-opacity=".501961" cx="0" cy="0" rx="1" ry="1" /></g><g transform="translate(133.563921 114.981468) rotate(92.551585) scale(18.111932 94.690644)"><ellipse fill="#000803" fill-opacity=".501961" cx="0" cy="0" rx="1" ry="1" /></g><ellipse fill="#685838" fill-opacity=".501961" cx="87" cy="255" rx="97" ry="97" /><g transform="translate(161 155) rotate(91) scale(131 21)"><path d="M0 0h2619v3929H0z" fill="#211d14" /></g><g transform="translate(12.823209 96.735649) rotate(313.140730) scale(33.323786 16.825239)"><ellipse fill="#b5e3ff" fill-opacity=".501961" cx="0" cy="0" rx="1" ry="1" /></g><ellipse fill="#b4a3a7" fill-opacity=".501961" cx="140" cy="243" rx="35" ry="27" /><g transform="translate(65 66) rotate(267) scale(36 9)"><path d="M0 0h2619v3929H0z" fill="#00101c" /></g><ellipse fill="#3f5913" fill-opacity=".501961" cx="36" cy="208" rx="25" ry="25" /></g></svg>