<svg xmlns="http://www.w3.org/2000/svg" viewBox="0 0 6000 4000"><filter id="b"><feGaussianBlur stdDeviation="12" /></filter><path d="M0 0h6e3v4e3H0z" fill="#727d79" /><g filter="url(#b)" transform="scale(23.437500) translate(0.5 0.5)"><g transform="translate(140.700522 18.041892) rotate(256.957147) scale(37.098570 123.481243)"><ellipse fill="#e8ffff" fill-opacity=".501961" cx="0" cy="0" rx="1" ry="1" /></g><g transform="translate(228.533691 106.387495) rotate(-0.050844) scale(109.188587 68.595139)"><ellipse fill="#303223" fill-opacity=".501961" cx="0" cy="0" rx="1" ry="1" /></g><ellipse fill="#d5f4ff" fill-opacity=".501961" cx="157" cy="24" rx="61" ry="25" /><g transform="translate(7.585409 129.930981) rotate(323.397392) scale(31.678069 140.724114)"><ellipse fill="#5b6800" fill-opacity=".501961" cx="0" cy="0" rx="1" ry="1" /></g><g transform="translate(100.938819 82.274872) rotate(-14.691946) scale(52.451066 22.965748)"><ellipse fill="#333132" fill-opacity=".501961" cx="0" cy="0" rx="1" ry="1" /></g><g transform="translate(16.431489 67.835546) rotate(83.818560) scale(12.724912 27.667844)"><ellipse fill="#dac6cf" fill-opacity=".501961" cx="0" cy="0" rx="1" ry="1" /></g><g transform="translate(148.043739 148.885089) rotate(312.343652) scale(21.219550 51.968965)"><ellipse fill="#7b8e8f" fill-opacity=".501961" cx="0" cy="0" rx="1" ry="1" /></g><g transform="translate(182.140960 64.568391) rotate(53.659080) scale(5.054524 28.071514)"><ellipse fill="#c9bdd3" fill-opacity=".501961" cx="0" cy="0" rx="1" ry="1" /></g></g></svg>