<svg xmlns="http://www.w3.org/2000/svg" viewBox="0 0 512 512"><filter id="b"><feGaussianBlur stdDeviation="12" /></filter><path d="M0 0h512v512H0z" fill="#bce085" /><g filter="url(#b)" transform="scale(2.000000) translate(0.5 0.5)"><g transform="translate(127 133) rotate(177) scale(32 41)"><path d="M0 0h512v512H0z" fill="#000" /></g><g transform="translate(77.293439 135.081997) rotate(88.584988) scale(23.852811 36.337949)"><ellipse fill="#fff" fill-opacity=".501961" cx="0" cy="0" rx="1" ry="1" /></g><ellipse fill="#fff" fill-opacity=".501961" cx="182" cy="135" rx="37" ry="25" /><path d="M0 0h512v512H0z" fill="#000" /><g transform="translate(127.924647 108.808629) rotate(-0.730198) scale(83.261706 5.007170)"><ellipse fill="#000008" fill-opacity=".501961" cx="0" cy="0" rx="1" ry="1" /></g><path fill="#000006" fill-opacity=".501961" d="M220 155l14-42-30-16z" /><path d="M0 0h512v512H0z" fill="#000" /><path d="M0 0h512v512H0z" fill="#000" /></g></svg>