<svg xmlns="http://www.w3.org/2000/svg" viewBox="0 0 4000 2250"><filter id="b"><feGaussianBlur stdDeviation="12" /></filter><path d="M0 0h4e3v2250H0z" fill="#446880" /><g filter="url(#b)" transform="scale(15.625000) translate(0.5 0.5)"><ellipse fill="#c0ffff" fill-opacity=".501961" cx="180" cy="10" rx="122" ry="17" /><g transform="translate(26.743418 93.549874) rotate(156.463506) scale(81.655919 50.714001)"><ellipse fill="#000c03" fill-opacity=".501961" cx="0" cy="0" rx="1" ry="1" /></g><ellipse fill="#7daad3" fill-opacity=".501961" cx="173" cy="125" rx="85" ry="49" /><ellipse fill="#042739" fill-opacity=".501961" cx="234" cy="52" rx="153" ry="24" /><ellipse fill="#45536b" fill-opacity=".501961" cx="37" cy="30" rx="36" ry="45" /><g transform="translate(169.393005 0.000000) rotate(174.483693) scale(105.517322 31.121932)"><ellipse fill="#85bff6" fill-opacity=".501961" cx="0" cy="0" rx="1" ry="1" /></g><g transform="translate(225 65) rotate(64) scale(31 34)"><path d="M0 0h4e3v2250H0z" fill="#002729" /></g><g transform="translate(45.276839 107.937331) rotate(49.992536) scale(32.389227 58.214118)"><ellipse fill="#102d2d" fill-opacity=".501961" cx="0" cy="0" rx="1" ry="1" /></g></g></svg>