<svg xmlns="http://www.w3.org/2000/svg" viewBox="0 0 5323 3549"><filter id="b"><feGaussianBlur stdDeviation="12" /></filter><path d="M0 0h5323v3549H0z" fill="#5b696c" /><g filter="url(#b)" transform="scale(20.792969) translate(0.5 0.5)"><g transform="translate(174.349469 0.000000) rotate(64.864970) scale(36.136623 43.808752)"><ellipse fill="#c3ffff" fill-opacity=".501961" cx="0" cy="0" rx="1" ry="1" /></g><g transform="translate(11.951988 30.376990) rotate(336.025744) scale(30.451031 46.192667)"><ellipse fill="#d4d1f6" fill-opacity=".501961" cx="0" cy="0" rx="1" ry="1" /></g><g transform="translate(208.192772 109.545371) rotate(256.738279) scale(45.128693 135.717188)"><ellipse fill="#1d2c1c" fill-opacity=".501961" cx="0" cy="0" rx="1" ry="1" /></g><ellipse fill="#00000d" fill-opacity=".501961" cx="247" cy="7" rx="31" ry="31" /><g transform="translate(68.919176 23.966966) rotate(247.906501) scale(18.581083 33.117645)"><ellipse fill="#011747" fill-opacity=".501961" cx="0" cy="0" rx="1" ry="1" /></g><g transform="translate(58.159475 70.941425) rotate(48.620101) scale(24.775081 34.331679)"><ellipse fill="#afa59f" fill-opacity=".501961" cx="0" cy="0" rx="1" ry="1" /></g><ellipse fill="#b6bf69" fill-opacity=".501961" cx="14" cy="161" rx="44" ry="31" /><g transform="translate(255.000000 168.103500) rotate(196.945832) scale(33.824083 10.180840)"><ellipse fill="#fae1e2" fill-opacity=".501961" cx="0" cy="0" rx="1" ry="1" /></g></g></svg>