<svg xmlns="http://www.w3.org/2000/svg" viewBox="0 0 3179 2119"><filter id="b"><feGaussianBlur stdDeviation="12" /></filter><path d="M0 0h3179v2119H0z" fill="#343b3a" /><g filter="url(#b)" transform="scale(12.417969) translate(0.5 0.5)"><g transform="translate(71.416192 27.989280) rotate(108.220491) scale(66.959711 100.324691)"><ellipse fill="#7a8483" fill-opacity=".501961" cx="0" cy="0" rx="1" ry="1" /></g><ellipse fill="#000208" fill-opacity=".501961" cx="121" cy="140" rx="135" ry="49" /><g transform="translate(169 80) rotate(364) scale(90 29)"><path d="M0 0h3179v2119H0z" fill="#c38964" /></g><ellipse fill="#000e00" fill-opacity=".501961" cx="253" cy="50" rx="25" ry="70" /><g transform="translate(70.399833 75.452432) rotate(16.294333) scale(79.255128 25.919090)"><ellipse fill="#845f42" fill-opacity=".501961" cx="0" cy="0" rx="1" ry="1" /></g><g transform="translate(112.124926 13.620588) rotate(298.381843) scale(43.402105 59.871762)"><ellipse fill="#205771" fill-opacity=".501961" cx="0" cy="0" rx="1" ry="1" /></g><g transform="translate(202.917264 27.491160) rotate(150.932527) scale(42.728390 27.579224)"><ellipse fill="#071d2e" fill-opacity=".501961" cx="0" cy="0" rx="1" ry="1" /></g><path d="M0 0h3179v2119H0z" fill="#4b3310" /></g></svg>