<svg xmlns="http://www.w3.org/2000/svg" viewBox="0 0 6000 4000"><filter id="b"><feGaussianBlur stdDeviation="12" /></filter><path d="M0 0h6e3v4e3H0z" fill="#727d79" /><g filter="url(#b)" transform="scale(23.437500) translate(0.5 0.5)"><g transform="translate(136.070074 21.423537) rotate(259.894383) scale(33.385375 112.511341)"><ellipse fill="#eff" fill-opacity=".501961" cx="0" cy="0" rx="1" ry="1" /></g><ellipse fill="#2e3021" fill-opacity=".501961" cx="224" cy="104" rx="108" ry="64" /><ellipse fill="#4e5900" fill-opacity=".501961" cx="8" cy="138" rx="33" ry="54" /><ellipse fill="#d4f4ff" fill-opacity=".501961" cx="163" cy="17" rx="59" ry="31" /><g transform="translate(83.473925 94.003211) rotate(3.441596) scale(42.236203 14.676702)"><ellipse fill="#1d1f1a" fill-opacity=".501961" cx="0" cy="0" rx="1" ry="1" /></g><g transform="translate(45.968196 51.078485) rotate(249.159129) scale(28.727590 48.533394)"><ellipse fill="#9db1d3" fill-opacity=".501961" cx="0" cy="0" rx="1" ry="1" /></g><ellipse fill="#6d8921" fill-opacity=".501961" cx="52" cy="169" rx="92" ry="24" /><g transform="translate(187 60) rotate(241) scale(8 57)"><path d="M0 0h6e3v4e3H0z" fill="#d5c9e0" /></g></g></svg>