<svg xmlns="http://www.w3.org/2000/svg" viewBox="0 0 5323 3549"><filter id="b"><feGaussianBlur stdDeviation="12" /></filter><path d="M0 0h5323v3549H0z" fill="#5b696c" /><g filter="url(#b)" transform="scale(20.792969) translate(0.5 0.5)"><ellipse fill="#c2fdff" fill-opacity=".501961" cx="173" cy="9" rx="42" ry="28" /><ellipse fill="#d4d3f8" fill-opacity=".501961" cx="18" cy="21" rx="24" ry="58" /><g transform="translate(221.102492 111.497505) rotate(173.067253) scale(139.413867 42.686739)"><ellipse fill="#1b2916" fill-opacity=".501961" cx="0" cy="0" rx="1" ry="1" /></g><g transform="translate(249.735868 9.748901) rotate(96.882323) scale(30.055236 20.844546)"><ellipse fill="#000" fill-opacity=".501961" cx="0" cy="0" rx="1" ry="1" /></g><ellipse fill="#000b3c" fill-opacity=".501961" cx="75" cy="21" rx="24" ry="22" /><ellipse fill="#afa5a7" fill-opacity=".501961" cx="60" cy="67" rx="29" ry="29" /><g transform="translate(37.376602 169.000000) rotate(210.574689) scale(97.973721 22.710183)"><ellipse fill="#bcc066" fill-opacity=".501961" cx="0" cy="0" rx="1" ry="1" /></g><g transform="translate(238.353951 160.555962) rotate(104.598047) scale(7.176035 20.789355)"><ellipse fill="#f6dfe2" fill-opacity=".501961" cx="0" cy="0" rx="1" ry="1" /></g></g></svg>