<svg xmlns="http://www.w3.org/2000/svg" viewBox="0 0 2641 3961"><filter id="b"><feGaussianBlur stdDeviation="12" /></filter><path d="M0 0h2641v3961H0z" fill="#2b3536" /><g filter="url(#b)" transform="scale(15.472656) translate(0.5 0.5)"><ellipse fill="#57929c" fill-opacity=".501961" cx="30" cy="0" rx="81" ry="81" /><g transform="translate(0 0) rotate(276) scale(53 29)"><path d="M0 0h2641v3961H0z" fill="#fff" /></g><g transform="translate(81.132579 230.447847) rotate(76.353182) scale(98.955675 170.000000)"><ellipse fill="#1c1716" fill-opacity=".501961" cx="0" cy="0" rx="1" ry="1" /></g><g transform="translate(93 30) rotate(253) scale(22 189)"><path d="M0 0h2641v3961H0z" fill="#122021" /></g><ellipse fill="#a55f52" fill-opacity=".501961" cx="107" cy="106" rx="22" ry="17" /><path fill="#548c97" fill-opacity=".501961" d="M25 47 9 86 114 57z" /><g transform="translate(109 1) rotate(164) scale(38 15)"><path d="M0 0h2641v3961H0z" fill="#72b6be" /></g><g transform="translate(52 23) rotate(247) scale(13 50)"><path d="M0 0h2641v3961H0z" fill="#6ba4ac" /></g></g></svg>