<svg xmlns="http://www.w3.org/2000/svg" viewBox="0 0 2743 4114"><filter id="b"><feGaussianBlur stdDeviation="12" /></filter><path d="M0 0h2743v4114H0z" fill="#52657b" /><g filter="url(#b)" transform="scale(16.070312) translate(0.5 0.5)"><g transform="translate(82.803066 33.674068) rotate(464.511065) scale(54.902891 89.698495)"><ellipse fill="#c6f4ff" fill-opacity=".501961" cx="0" cy="0" rx="1" ry="1" /></g><path fill="#010500" fill-opacity=".501961" d="M-16 63l202 55L-8 214z" /><g transform="translate(156.757046 194.990424) rotate(273.816602) scale(104.077886 20.307958)"><ellipse fill="#000" fill-opacity=".501961" cx="0" cy="0" rx="1" ry="1" /></g><g transform="translate(88.364090 190.364974) rotate(252.068311) scale(27.908537 57.805139)"><ellipse fill="#9f8ea2" fill-opacity=".501961" cx="0" cy="0" rx="1" ry="1" /></g><ellipse fill="#93bfff" fill-opacity=".501961" cx="89" cy="17" rx="63" ry="63" /><path d="M0 0h2743v4114H0z" fill="#000" /><ellipse fill="#072b50" fill-opacity=".501961" cx="64" cy="246" rx="170" ry="14" /><g transform="translate(170.000000 166.266644) rotate(3.057453) scale(20.371591 78.743815)"><ellipse fill="#000a02" fill-opacity=".501961" cx="0" cy="0" rx="1" ry="1" /></g></g></svg>