<svg xmlns="http://www.w3.org/2000/svg" viewBox="0 0 3412 2275"><filter id="b"><feGaussianBlur stdDeviation="12" /></filter><path d="M0 0h3412v2275H0z" fill="#576b86" /><g filter="url(#b)" transform="scale(13.328125) translate(0.5 0.5)"><path fill="#a7edff" fill-opacity=".501961" d="M117 43-16-16 271 7z" /><g transform="translate(26.297732 110.153622) rotate(209.718100) scale(38.699723 66.927493)"><ellipse fill="#08101a" fill-opacity=".501961" cx="0" cy="0" rx="1" ry="1" /></g><ellipse fill="#243044" fill-opacity=".501961" cx="184" cy="62" rx="244" ry="27" /><g transform="translate(233.474989 0.210174) rotate(262.781036) scale(31.096271 83.389902)"><ellipse fill="#98d2fd" fill-opacity=".501961" cx="0" cy="0" rx="1" ry="1" /></g><g transform="translate(168.303091 139.379401) rotate(366.996551) scale(95.998611 44.684480)"><ellipse fill="#8992ae" fill-opacity=".501961" cx="0" cy="0" rx="1" ry="1" /></g><ellipse fill="#85b4e5" fill-opacity=".501961" cx="81" cy="15" rx="44" ry="20" /><g transform="translate(245.459149 89.961205) rotate(293.012277) scale(23.892050 54.157734)"><ellipse fill="#1d3539" fill-opacity=".501961" cx="0" cy="0" rx="1" ry="1" /></g><ellipse fill="#565974" fill-opacity=".501961" cx="6" cy="40" rx="46" ry="46" /></g></svg>