<svg xmlns="http://www.w3.org/2000/svg" viewBox="0 0 2619 3929"><filter id="b"><feGaussianBlur stdDeviation="12" /></filter><path d="M0 0h2619v3929H0z" fill="#6f878c" /><g filter="url(#b)" transform="scale(15.347656) translate(0.5 0.5)"><g transform="translate(79.543694 41.852344) rotate(356.697824) scale(169.000000 48.963137)"><ellipse fill="#88d9ff" fill-opacity=".501961" cx="0" cy="0" rx="1" ry="1" /></g><ellipse fill="#07100b" fill-opacity=".501961" cx="140" cy="110" rx="100" ry="22" /><g transform="translate(81.091735 207.113192) rotate(73.994519) scale(33.771976 169.000000)"><ellipse fill="#584d29" fill-opacity=".501961" cx="0" cy="0" rx="1" ry="1" /></g><ellipse fill="#080600" fill-opacity=".501961" cx="169" cy="136" rx="19" ry="43" /><g transform="translate(3.791811 89.984314) rotate(229.301183) scale(30.169741 47.659783)"><ellipse fill="#a4d9f6" fill-opacity=".501961" cx="0" cy="0" rx="1" ry="1" /></g><g transform="translate(66.659079 77.730788) rotate(265.741563) scale(38.816868 6.750979)"><ellipse fill="#254046" fill-opacity=".501961" cx="0" cy="0" rx="1" ry="1" /></g><ellipse fill="#96827f" fill-opacity=".501961" cx="128" cy="240" rx="100" ry="24" /><path fill="#2d2d27" fill-opacity=".501961" d="M0 156l62-48-43 60z" /></g></svg>