<svg xmlns="http://www.w3.org/2000/svg" viewBox="0 0 5649 3766"><filter id="b"><feGaussianBlur stdDeviation="12" /></filter><path d="M0 0h5649v3766H0z" fill="#6d7a85" /><g filter="url(#b)" transform="scale(22.066406) translate(0.5 0.5)"><ellipse fill="#bdbcb7" fill-opacity=".501961" cx="125" cy="116" rx="114" ry="34" /><g transform="translate(11.802771 161.562494) rotate(50.038013) scale(39.239935 26.525925)"><ellipse fill="#000" fill-opacity=".501961" cx="0" cy="0" rx="1" ry="1" /></g><ellipse fill="#000003" fill-opacity=".501961" cx="22" cy="9" rx="40" ry="16" /><g transform="translate(238.424997 169.000000) rotate(171.115238) scale(192.607136 32.879860)"><ellipse fill="#25232e" fill-opacity=".501961" cx="0" cy="0" rx="1" ry="1" /></g><g transform="translate(68.439219 60.993336) rotate(-28.745198) scale(26.444074 42.817041)"><ellipse fill="#8dbdd2" fill-opacity=".501961" cx="0" cy="0" rx="1" ry="1" /></g><g transform="translate(239.615327 16.372501) rotate(115.856515) scale(24.172272 30.504641)"><ellipse fill="#262c41" fill-opacity=".501961" cx="0" cy="0" rx="1" ry="1" /></g><g transform="translate(159.896402 134.455537) rotate(154.865829) scale(25.461157 18.672224)"><ellipse fill="#daded1" fill-opacity=".501961" cx="0" cy="0" rx="1" ry="1" /></g><g transform="translate(72.391190 152.577825) rotate(273.682475) scale(14.798934 33.698661)"><ellipse fill="#bdbfae" fill-opacity=".501961" cx="0" cy="0" rx="1" ry="1" /></g></g></svg>