<svg xmlns="http://www.w3.org/2000/svg" viewBox="0 0 2743 4114"><filter id="b"><feGaussianBlur stdDeviation="12" /></filter><path d="M0 0h2743v4114H0z" fill="#52657b" /><g filter="url(#b)" transform="scale(16.070312) translate(0.5 0.5)"><g transform="translate(90.142639 40.088294) rotate(7.213531) scale(98.281479 49.015575)"><ellipse fill="#c3f0ff" fill-opacity=".501961" cx="0" cy="0" rx="1" ry="1" /></g><ellipse fill="#0b0f06" fill-opacity=".501961" cx="40" cy="134" rx="170" ry="47" /><g transform="translate(170 184) rotate(191) scale(59 179)"><path d="M0 0h2743v4114H0z" fill="#000" /></g><path fill="#b09db2" fill-opacity=".501961" d="M25 196l103 20 14-71z" /><g transform="translate(14.882948 178.861080) rotate(139.697161) scale(77.291353 25.871668)"><ellipse fill="#000b00" fill-opacity=".501961" cx="0" cy="0" rx="1" ry="1" /></g><path fill="#000006" fill-opacity=".501961" d="M186 58.375231V49.361273L144.614493 22.529449 186-10.315085z" /><ellipse fill="#93bdff" fill-opacity=".501961" cx="83" cy="17" rx="68" ry="68" /><g transform="translate(15 89) rotate(19) scale(53 38)"><path d="M0 0h2743v4114H0z" fill="#0c0c00" /></g></g></svg>