<svg xmlns="http://www.w3.org/2000/svg" viewBox="0 0 5323 3549"><filter id="b"><feGaussianBlur stdDeviation="12" /></filter><path d="M0 0h5323v3549H0z" fill="#5b696c" /><g filter="url(#b)" transform="scale(20.792969) translate(0.5 0.5)"><ellipse fill="#c7ffff" fill-opacity=".501961" cx="173" cy="1" rx="42" ry="36" /><ellipse fill="#222e17" fill-opacity=".501961" cx="202" cy="108" rx="59" ry="59" /><g transform="translate(12.613749 10.954185) rotate(266.030189) scale(62.130646 29.693112)"><ellipse fill="#d8d7fc" fill-opacity=".501961" cx="0" cy="0" rx="1" ry="1" /></g><g transform="translate(115.992959 126.606676) rotate(334.613265) scale(60.542031 22.912026)"><ellipse fill="#1e2b21" fill-opacity=".501961" cx="0" cy="0" rx="1" ry="1" /></g><g transform="translate(242.227146 0.816085) rotate(261.034894) scale(40.384015 16.213936)"><ellipse fill="#000" fill-opacity=".501961" cx="0" cy="0" rx="1" ry="1" /></g><ellipse fill="#b2a9ad" fill-opacity=".501961" cx="52" cy="67" rx="36" ry="24" /><ellipse fill="#000c3d" fill-opacity=".501961" cx="72" cy="21" rx="25" ry="22" /><g transform="translate(18.256783 158.273683) rotate(296.504700) scale(21.228639 110.000581)"><ellipse fill="#bec265" fill-opacity=".501961" cx="0" cy="0" rx="1" ry="1" /></g></g></svg>