<svg xmlns="http://www.w3.org/2000/svg" viewBox="0 0 4000 2250"><filter id="b"><feGaussianBlur stdDeviation="12" /></filter><path d="M0 0h4e3v2250H0z" fill="#446880" /><g filter="url(#b)" transform="scale(15.625000) translate(0.5 0.5)"><g transform="translate(35.521297 103.795313) rotate(232.326128) scale(43.646560 84.895261)"><ellipse fill="#000b02" fill-opacity=".501961" cx="0" cy="0" rx="1" ry="1" /></g><g transform="translate(171.691184 4.881886) rotate(268.262302) scale(24.979253 111.665275)"><ellipse fill="#bcffff" fill-opacity=".501961" cx="0" cy="0" rx="1" ry="1" /></g><g transform="translate(179.504207 143.000000) rotate(95.807062) scale(64.634604 97.574073)"><ellipse fill="#7daad3" fill-opacity=".501961" cx="0" cy="0" rx="1" ry="1" /></g><g transform="translate(199.855230 51.892506) rotate(-0.558473) scale(95.168803 24.209950)"><ellipse fill="#03273a" fill-opacity=".501961" cx="0" cy="0" rx="1" ry="1" /></g><ellipse fill="#3a475b" fill-opacity=".501961" cx="22" cy="36" rx="57" ry="50" /><g transform="translate(196.735920 7.927058) rotate(275.101541) scale(15.907213 94.034422)"><ellipse fill="#90ceff" fill-opacity=".501961" cx="0" cy="0" rx="1" ry="1" /></g><g transform="translate(0.000000 88.142527) rotate(263.113958) scale(61.146028 20.950313)"><ellipse fill="#082526" fill-opacity=".501961" cx="0" cy="0" rx="1" ry="1" /></g><g transform="translate(227.740299 66.737230) rotate(266.995687) scale(16.034043 25.866386)"><ellipse fill="#032b30" fill-opacity=".501961" cx="0" cy="0" rx="1" ry="1" /></g></g></svg>