<svg xmlns="http://www.w3.org/2000/svg" viewBox="0 0 5323 3549"><filter id="b"><feGaussianBlur stdDeviation="12" /></filter><path d="M0 0h5323v3549H0z" fill="#5b696c" /><g filter="url(#b)" transform="scale(20.792969) translate(0.5 0.5)"><ellipse fill="#c7ffff" fill-opacity=".501961" cx="173" cy="0" rx="43" ry="37" /><g transform="translate(13.887508 33.027463) rotate(338.407575) scale(28.410662 42.788288)"><ellipse fill="#d6d3f7" fill-opacity=".501961" cx="0" cy="0" rx="1" ry="1" /></g><g transform="translate(225.524744 101.700281) rotate(254.994101) scale(44.742502 168.681893)"><ellipse fill="#1f2d1e" fill-opacity=".501961" cx="0" cy="0" rx="1" ry="1" /></g><ellipse fill="#000" fill-opacity=".501961" cx="246" cy="6" rx="19" ry="33" /><g transform="translate(73.975234 20.314426) rotate(178.971560) scale(22.942316 22.445814)"><ellipse fill="#000a3d" fill-opacity=".501961" cx="0" cy="0" rx="1" ry="1" /></g><g transform="translate(16.282303 162.150124) rotate(202.070033) scale(64.717807 26.993420)"><ellipse fill="#bdc265" fill-opacity=".501961" cx="0" cy="0" rx="1" ry="1" /></g><ellipse fill="#aca4aa" fill-opacity=".501961" cx="52" cy="66" rx="36" ry="24" /><g transform="translate(165.604936 14.814992) rotate(237.944747) scale(24.148299 55.759878)"><ellipse fill="#8eb7fa" fill-opacity=".501961" cx="0" cy="0" rx="1" ry="1" /></g></g></svg>