<svg xmlns="http://www.w3.org/2000/svg" viewBox="0 0 5323 3549"><filter id="b"><feGaussianBlur stdDeviation="12" /></filter><path d="M0 0h5323v3549H0z" fill="#5b696c" /><g filter="url(#b)" transform="scale(20.792969) translate(0.5 0.5)"><g transform="translate(174.458326 0.000000) rotate(157.095684) scale(43.583358 35.975474)"><ellipse fill="#c5ffff" fill-opacity=".501961" cx="0" cy="0" rx="1" ry="1" /></g><g transform="translate(5.672164 26.868317) rotate(55.633255) scale(61.681046 27.929373)"><ellipse fill="#d6d1f3" fill-opacity=".501961" cx="0" cy="0" rx="1" ry="1" /></g><g transform="translate(205.480360 109.590020) rotate(-12.380346) scale(133.974924 42.934947)"><ellipse fill="#1c2b1a" fill-opacity=".501961" cx="0" cy="0" rx="1" ry="1" /></g><g transform="translate(255.000000 0.000000) rotate(237.444875) scale(40.309376 38.056695)"><ellipse fill="#000009" fill-opacity=".501961" cx="0" cy="0" rx="1" ry="1" /></g><g transform="translate(67.657184 25.449774) rotate(241.389506) scale(15.442992 35.283427)"><ellipse fill="#011647" fill-opacity=".501961" cx="0" cy="0" rx="1" ry="1" /></g><ellipse fill="#b5be68" fill-opacity=".501961" cx="15" cy="161" rx="44" ry="31" /><ellipse fill="#b5a8b1" fill-opacity=".501961" cx="66" cy="65" rx="24" ry="24" /><g transform="translate(255.000000 167.023003) rotate(108.318221) scale(8.402850 35.517737)"><ellipse fill="#fce3e6" fill-opacity=".501961" cx="0" cy="0" rx="1" ry="1" /></g></g></svg>