<svg xmlns="http://www.w3.org/2000/svg" viewBox="0 0 1200 1800"><filter id="b"><feGaussianBlur stdDeviation="12" /></filter><path d="M0 0h12e2v18e2H0z" fill="#2b3436" /><g filter="url(#b)" transform="scale(7.031250) translate(0.5 0.5)"><ellipse fill="#58919c" fill-opacity=".501961" cx="31" cy="0" rx="80" ry="80" /><g transform="translate(0 12) rotate(-2) scale(30 31)"><path d="M0 0h12e2v18e2H0z" fill="#fff" /></g><ellipse fill="#1a1714" fill-opacity=".501961" cx="85" cy="251" rx="123" ry="123" /><g transform="translate(87.540777 32.503174) rotate(256.327059) scale(11.663676 79.201025)"><ellipse fill="#0e191c" fill-opacity=".501961" cx="0" cy="0" rx="1" ry="1" /></g><g transform="translate(111.675772 107.106359) rotate(75.424092) scale(17.056616 17.469368)"><ellipse fill="#b06554" fill-opacity=".501961" cx="0" cy="0" rx="1" ry="1" /></g><ellipse fill="#6397a0" fill-opacity=".501961" cx="58" cy="61" rx="30" ry="11" /><ellipse fill="#dff" fill-opacity=".501961" cx="3" cy="8" rx="10" ry="20" /><path fill="#6da2ac" fill-opacity=".501961" d="M31 23l37 2L115-9z" /></g></svg>