<svg xmlns="http://www.w3.org/2000/svg" viewBox="0 0 1200 1800"><filter id="b"><feGaussianBlur stdDeviation="12" /></filter><path d="M0 0h12e2v18e2H0z" fill="#1e3454" /><g filter="url(#b)" transform="scale(7.031250) translate(0.5 0.5)"><g transform="translate(99.668474 132.898288) rotate(20.299624) scale(24.059331 26.034064)"><ellipse fill="#ffeabf" fill-opacity=".501961" cx="0" cy="0" rx="1" ry="1" /></g><g transform="translate(108.295660 235.781152) rotate(106.976973) scale(81.480059 71.153545)"><ellipse fill="#1b1420" fill-opacity=".501961" cx="0" cy="0" rx="1" ry="1" /></g><g transform="translate(108 126) rotate(93) scale(23 28)"><path d="M0 0h12e2v18e2H0z" fill="#ffeae0" /></g><g transform="translate(21.452358 0.000000) rotate(339.545379) scale(15.552543 27.597199)"><ellipse fill="#0061d5" fill-opacity=".501961" cx="0" cy="0" rx="1" ry="1" /></g><ellipse fill="#003f83" fill-opacity=".501961" cx="111" cy="31" rx="43" ry="31" /><path d="M0 0h12e2v18e2H0z" fill="#1a4272" /><g transform="translate(5 54) rotate(249) scale(29 19)"><path d="M0 0h12e2v18e2H0z" fill="#0068d4" /></g><ellipse fill="#2d0d1f" fill-opacity=".501961" cx="107" cy="116" rx="3" ry="31" /></g></svg>