<svg xmlns="http://www.w3.org/2000/svg" viewBox="0 0 1200 1800"><filter id="b"><feGaussianBlur stdDeviation="12" /></filter><path d="M0 0h12e2v18e2H0z" fill="#53657c" /><g filter="url(#b)" transform="scale(7.031250) translate(0.5 0.5)"><g transform="translate(69.434616 25.105954) rotate(291.008969) scale(59.942354 104.812630)"><ellipse fill="#c7f2ff" fill-opacity=".501961" cx="0" cy="0" rx="1" ry="1" /></g><ellipse fill="#070b02" fill-opacity=".501961" cx="20" cy="129" rx="169" ry="47" /><g transform="translate(169.000000 178.015677) rotate(189.937433) scale(28.546798 117.881005)"><ellipse fill="#000" fill-opacity=".501961" cx="0" cy="0" rx="1" ry="1" /></g><g transform="translate(7.412128 182.860027) rotate(322.532881) scale(89.051395 25.782705)"><ellipse fill="#000900" fill-opacity=".501961" cx="0" cy="0" rx="1" ry="1" /></g><g transform="translate(94.649370 188.409785) rotate(64.396845) scale(24.314681 54.858015)"><ellipse fill="#aa97ad" fill-opacity=".501961" cx="0" cy="0" rx="1" ry="1" /></g><g transform="translate(87.874152 29.714762) rotate(43.854033) scale(60.204189 63.622087)"><ellipse fill="#95bcff" fill-opacity=".501961" cx="0" cy="0" rx="1" ry="1" /></g><g transform="translate(84.350038 252.561588) rotate(93.577346) scale(19.167998 95.120628)"><ellipse fill="#072c51" fill-opacity=".501961" cx="0" cy="0" rx="1" ry="1" /></g><g transform="translate(161 25) rotate(301) scale(11 26)"><path d="M0 0h12e2v18e2H0z" fill="#000" /></g></g></svg>