<svg xmlns="http://www.w3.org/2000/svg" viewBox="0 0 1200 800"><filter id="b"><feGaussianBlur stdDeviation="12" /></filter><path d="M0 0h12e2v8e2H0z" fill="#343a39" /><g filter="url(#b)" transform="scale(4.687500) translate(0.5 0.5)"><g transform="translate(66.201427 35.889961) rotate(13.607117) scale(109.107065 57.843565)"><ellipse fill="#7b8381" fill-opacity=".501961" cx="0" cy="0" rx="1" ry="1" /></g><path fill="#000008" fill-opacity=".501961" d="M188 88l83 97-287-30z" /><g transform="translate(166.143610 78.980249) rotate(4.059492) scale(49.397167 16.754993)"><ellipse fill="#bc855f" fill-opacity=".501961" cx="0" cy="0" rx="1" ry="1" /></g><g transform="translate(34.598154 150.981250) rotate(21.191905) scale(65.147502 51.966593)"><ellipse fill="#060b0b" fill-opacity=".501961" cx="0" cy="0" rx="1" ry="1" /></g><ellipse fill="#000d00" fill-opacity=".501961" cx="249" cy="52" rx="17" ry="110" /><ellipse fill="#205a76" fill-opacity=".501961" cx="111" cy="0" rx="56" ry="56" /><ellipse fill="#987053" fill-opacity=".501961" cx="63" cy="71" rx="70" ry="18" /><g transform="translate(91.060604 101.484630) rotate(177.121180) scale(84.373954 11.516591)"><ellipse fill="#4f2c05" fill-opacity=".501961" cx="0" cy="0" rx="1" ry="1" /></g></g></svg>