<svg xmlns="http://www.w3.org/2000/svg" viewBox="0 0 1200 1800"><filter id="b"><feGaussianBlur stdDeviation="12" /></filter><path d="M0 0h12e2v18e2H0z" fill="#686c6d" /><g filter="url(#b)" transform="scale(7.031250) translate(0.5 0.5)"><g transform="translate(115.587863 29.998442) rotate(214.797693) scale(118.188774 48.594845)"><ellipse fill="#cef2ff" fill-opacity=".501961" cx="0" cy="0" rx="1" ry="1" /></g><ellipse fill="#18150a" fill-opacity=".501961" cx="52" cy="167" rx="109" ry="33" /><ellipse fill="#332e00" fill-opacity=".501961" cx="11" cy="68" rx="54" ry="54" /><ellipse fill="#000" fill-opacity=".501961" cx="57" cy="250" rx="95" ry="15" /><g transform="translate(31.873247 178.902260) rotate(248.150450) scale(9.859469 89.777607)"><ellipse fill="#989595" fill-opacity=".501961" cx="0" cy="0" rx="1" ry="1" /></g><ellipse fill="#a7bfeb" fill-opacity=".501961" cx="105" cy="49" rx="37" ry="55" /><g transform="translate(155.270520 131.472634) rotate(72.380035) scale(11.705162 33.332432)"><ellipse fill="#a7b6cd" fill-opacity=".501961" cx="0" cy="0" rx="1" ry="1" /></g><g transform="translate(162.480664 245.243072) rotate(62.629840) scale(34.926225 11.817504)"><ellipse fill="#b1c4df" fill-opacity=".501961" cx="0" cy="0" rx="1" ry="1" /></g></g></svg>