<svg xmlns="http://www.w3.org/2000/svg" viewBox="0 0 5649 3766"><filter id="b"><feGaussianBlur stdDeviation="12" /></filter><path d="M0 0h5649v3766H0z" fill="#6e7a85" /><g filter="url(#b)" transform="scale(22.066406) translate(0.5 0.5)"><g transform="translate(13.905487 159.099392) rotate(140.137062) scale(24.914069 31.836982)"><ellipse fill="#000" fill-opacity=".501961" cx="0" cy="0" rx="1" ry="1" /></g><ellipse fill="#bcbcb7" fill-opacity=".501961" cx="124" cy="117" rx="115" ry="34" /><g transform="translate(205.968419 166.869554) rotate(-9.138352) scale(154.109546 23.843556)"><ellipse fill="#21202c" fill-opacity=".501961" cx="0" cy="0" rx="1" ry="1" /></g><g transform="translate(11 14) rotate(163) scale(95 34)"><path d="M0 0h5649v3766H0z" fill="#000001" /></g><g transform="translate(70.157135 62.458466) rotate(421.700901) scale(43.998035 26.998988)"><ellipse fill="#8ebbd2" fill-opacity=".501961" cx="0" cy="0" rx="1" ry="1" /></g><g transform="translate(251.325652 9.648877) rotate(3.388308) scale(37.009410 31.271708)"><ellipse fill="#21253a" fill-opacity=".501961" cx="0" cy="0" rx="1" ry="1" /></g><path d="M0 0h5649v3766H0z" fill="#e5e6db" /><path fill="#dad5c0" fill-opacity=".501961" d="M40 142l48 34 11-25z" /></g></svg>