<svg xmlns="http://www.w3.org/2000/svg" viewBox="0 0 2743 4114"><filter id="b"><feGaussianBlur stdDeviation="12" /></filter><path d="M0 0h2743v4114H0z" fill="#52657b" /><g filter="url(#b)" transform="scale(16.070312) translate(0.5 0.5)"><g transform="translate(79.345183 36.579361) rotate(103.407501) scale(52.514955 92.210566)"><ellipse fill="#c7f5ff" fill-opacity=".501961" cx="0" cy="0" rx="1" ry="1" /></g><g transform="translate(46.860893 126.095542) rotate(92.617741) scale(40.883175 169.148491)"><ellipse fill="#040a00" fill-opacity=".501961" cx="0" cy="0" rx="1" ry="1" /></g><ellipse fill="#000" fill-opacity=".501961" cx="166" cy="209" rx="27" ry="119" /><g transform="translate(10.455425 178.335310) rotate(325.380164) scale(61.771873 29.422776)"><ellipse fill="#000" fill-opacity=".501961" cx="0" cy="0" rx="1" ry="1" /></g><g transform="translate(88.908155 191.072420) rotate(243.161358) scale(25.178367 62.002368)"><ellipse fill="#a191a7" fill-opacity=".501961" cx="0" cy="0" rx="1" ry="1" /></g><g transform="translate(84.671472 5.470792) rotate(83.990585) scale(73.020153 69.379232)"><ellipse fill="#91bdff" fill-opacity=".501961" cx="0" cy="0" rx="1" ry="1" /></g><g transform="translate(0.000000 78.743559) rotate(189.581810) scale(51.540668 14.141056)"><ellipse fill="#131400" fill-opacity=".501961" cx="0" cy="0" rx="1" ry="1" /></g><g transform="translate(64.345712 255.000000) rotate(180.736913) scale(139.499137 21.852979)"><ellipse fill="#052a50" fill-opacity=".501961" cx="0" cy="0" rx="1" ry="1" /></g></g></svg>