<svg xmlns="http://www.w3.org/2000/svg" viewBox="0 0 3412 2275"><filter id="b"><feGaussianBlur stdDeviation="12" /></filter><path d="M0 0h3412v2275H0z" fill="#576b86" /><g filter="url(#b)" transform="scale(13.328125) translate(0.5 0.5)"><g transform="translate(30.799813 112.044887) rotate(34.272333) scale(37.558857 67.498702)"><ellipse fill="#09121d" fill-opacity=".501961" cx="0" cy="0" rx="1" ry="1" /></g><ellipse fill="#aaf0ff" fill-opacity=".501961" cx="174" cy="8" rx="148" ry="26" /><ellipse fill="#222f43" fill-opacity=".501961" cx="201" cy="63" rx="232" ry="27" /><g transform="translate(156.352883 146.315973) rotate(1.703082) scale(104.845746 51.779705)"><ellipse fill="#8690ad" fill-opacity=".501961" cx="0" cy="0" rx="1" ry="1" /></g><g transform="translate(240.563669 87.815459) rotate(109.726287) scale(22.845526 54.525050)"><ellipse fill="#1f353b" fill-opacity=".501961" cx="0" cy="0" rx="1" ry="1" /></g><ellipse fill="#80aee1" fill-opacity=".501961" cx="78" cy="5" rx="47" ry="31" /><path fill="#66698a" fill-opacity=".501961" d="M77 93 92 59 10-16z" /><g transform="translate(8.396465 47.262483) rotate(356.324462) scale(28.722241 45.044559)"><ellipse fill="#4c5068" fill-opacity=".501961" cx="0" cy="0" rx="1" ry="1" /></g></g></svg>