<svg xmlns="http://www.w3.org/2000/svg" viewBox="0 0 2619 3929"><filter id="b"><feGaussianBlur stdDeviation="12" /></filter><path d="M0 0h2619v3929H0z" fill="#6f878c" /><g filter="url(#b)" transform="scale(15.347656) translate(0.5 0.5)"><g transform="translate(74.728818 29.107324) rotate(267.280080) scale(62.431576 167.423170)"><ellipse fill="#88d8ff" fill-opacity=".501961" cx="0" cy="0" rx="1" ry="1" /></g><ellipse fill="#050e08" fill-opacity=".501961" cx="154" cy="111" rx="115" ry="22" /><g transform="translate(81.817491 206.619349) rotate(254.819738) scale(34.229847 166.452116)"><ellipse fill="#584d29" fill-opacity=".501961" cx="0" cy="0" rx="1" ry="1" /></g><g transform="translate(8.328188 93.954815) rotate(135.170305) scale(45.693592 24.241930)"><ellipse fill="#a8dbf7" fill-opacity=".501961" cx="0" cy="0" rx="1" ry="1" /></g><ellipse fill="#0a0800" fill-opacity=".501961" cx="169" cy="135" rx="20" ry="43" /><path fill="#293c40" fill-opacity=".501961" d="M114.558094 113.463005 41.896964 131.185054 65.681332 35.80226 71.057677 73.992724z" /><g transform="translate(108.536965 149.481022) rotate(280.189354) scale(19.330560 37.258981)"><ellipse fill="#b8a6a1" fill-opacity=".501961" cx="0" cy="0" rx="1" ry="1" /></g><g transform="translate(141 236) rotate(132) scale(34 51)"><path d="M0 0h2619v3929H0z" fill="#bc9b94" /></g></g></svg>