<svg xmlns="http://www.w3.org/2000/svg" viewBox="0 0 1200 800"><filter id="b"><feGaussianBlur stdDeviation="12" /></filter><path d="M0 0h12e2v8e2H0z" fill="#5c696d" /><g filter="url(#b)" transform="scale(4.687500) translate(0.5 0.5)"><g transform="translate(174.298674 0.000000) rotate(245.432169) scale(35.770047 43.998433)"><ellipse fill="#c5ffff" fill-opacity=".501961" cx="0" cy="0" rx="1" ry="1" /></g><g transform="translate(193 121) rotate(326) scale(130 105)"><path d="M0 0h12e2v8e2H0z" fill="#1f2e19" /></g><g transform="translate(12.780891 24.774389) rotate(70.711244) scale(61.887528 30.393717)"><ellipse fill="#cac9eb" fill-opacity=".501961" cx="0" cy="0" rx="1" ry="1" /></g><g transform="translate(250.114042 7.487533) rotate(368.228572) scale(19.459248 31.857534)"><ellipse fill="#000" fill-opacity=".501961" cx="0" cy="0" rx="1" ry="1" /></g><g transform="translate(73.529586 23.794521) rotate(362.284391) scale(24.650772 20.228331)"><ellipse fill="#000b3c" fill-opacity=".501961" cx="0" cy="0" rx="1" ry="1" /></g><g transform="translate(37.272200 169.000000) rotate(209.449661) scale(84.563924 22.679559)"><ellipse fill="#bcc164" fill-opacity=".501961" cx="0" cy="0" rx="1" ry="1" /></g><path d="M0 0h12e2v8e2H0z" fill="#c8b6c8" /><g transform="translate(247.388437 169.000000) rotate(119.169819) scale(11.962018 33.939627)"><ellipse fill="#e5d2d4" fill-opacity=".501961" cx="0" cy="0" rx="1" ry="1" /></g></g></svg>