<svg xmlns="http://www.w3.org/2000/svg" viewBox="0 0 1200 800"><filter id="b"><feGaussianBlur stdDeviation="12" /></filter><path d="M0 0h12e2v8e2H0z" fill="#737e7a" /><g filter="url(#b)" transform="scale(4.687500) translate(0.5 0.5)"><g transform="translate(131.926319 24.265983) rotate(259.015927) scale(33.797120 114.115614)"><ellipse fill="#e9ffff" fill-opacity=".501961" cx="0" cy="0" rx="1" ry="1" /></g><ellipse fill="#2d2d21" fill-opacity=".501961" cx="243" cy="101" rx="130" ry="63" /><g transform="translate(0.000000 139.290120) rotate(412.573582) scale(90.776799 45.108887)"><ellipse fill="#5a6600" fill-opacity=".501961" cx="0" cy="0" rx="1" ry="1" /></g><g transform="translate(83.024167 93.939518) rotate(4.702351) scale(39.137550 15.031156)"><ellipse fill="#1d1d1b" fill-opacity=".501961" cx="0" cy="0" rx="1" ry="1" /></g><ellipse fill="#d9f6ff" fill-opacity=".501961" cx="170" cy="14" rx="59" ry="30" /><g transform="translate(185.049500 65.520087) rotate(146.477094) scale(34.144910 7.894633)"><ellipse fill="#afa3b8" fill-opacity=".501961" cx="0" cy="0" rx="1" ry="1" /></g><ellipse fill="#e0ced6" fill-opacity=".501961" cx="22" cy="67" rx="20" ry="14" /><ellipse fill="#47502c" fill-opacity=".501961" cx="220" cy="141" rx="52" ry="52" /></g></svg>