<svg xmlns="http://www.w3.org/2000/svg" viewBox="0 0 1200 1800"><filter id="b"><feGaussianBlur stdDeviation="12" /></filter><path d="M0 0h12e2v18e2H0z" fill="#70888e" /><g filter="url(#b)" transform="scale(7.031250) translate(0.5 0.5)"><g transform="translate(88.201615 36.074244) rotate(-95.562312) scale(54.332249 169.000000)"><ellipse fill="#8fe3ff" fill-opacity=".501961" cx="0" cy="0" rx="1" ry="1" /></g><g transform="translate(140.960945 111.942015) rotate(271.607788) scale(21.772886 98.627127)"><ellipse fill="#060e09" fill-opacity=".501961" cx="0" cy="0" rx="1" ry="1" /></g><g transform="translate(82.356511 206.296978) rotate(165.592676) scale(169.000000 34.229025)"><ellipse fill="#584b27" fill-opacity=".501961" cx="0" cy="0" rx="1" ry="1" /></g><g transform="translate(0.000000 99.489795) rotate(0.769787) scale(29.130003 23.626442)"><ellipse fill="#bee9ff" fill-opacity=".501961" cx="0" cy="0" rx="1" ry="1" /></g><ellipse fill="#090400" fill-opacity=".501961" cx="165" cy="134" rx="15" ry="41" /><path fill="#23363d" fill-opacity=".501961" d="M87 110 37 138 65 42z" /><ellipse fill="#bba8a3" fill-opacity=".501961" cx="112" cy="151" rx="33" ry="20" /><g transform="translate(17.123274 153.114238) rotate(129.751584) scale(14.138205 12.961658)"><ellipse fill="#2d251b" fill-opacity=".501961" cx="0" cy="0" rx="1" ry="1" /></g></g></svg>