<svg xmlns="http://www.w3.org/2000/svg" viewBox="0 0 1200 800"><filter id="b"><feGaussianBlur stdDeviation="12" /></filter><path d="M0 0h12e2v8e2H0z" fill="#5d6a6d" /><g filter="url(#b)" transform="scale(4.687500) translate(0.5 0.5)"><ellipse fill="#f3ffff" fill-opacity=".501961" cx="155" cy="9" rx="99" ry="28" /><ellipse fill="#1b1908" fill-opacity=".501961" cx="87" cy="71" rx="111" ry="30" /><g transform="translate(241.656021 153.964580) rotate(149.498599) scale(37.163980 41.905271)"><ellipse fill="#000" fill-opacity=".501961" cx="0" cy="0" rx="1" ry="1" /></g><g transform="translate(139.358956 4.875981) rotate(112.737470) scale(31.386747 56.261492)"><ellipse fill="#b8e7ff" fill-opacity=".501961" cx="0" cy="0" rx="1" ry="1" /></g><ellipse fill="#1f2010" fill-opacity=".501961" cx="163" cy="96" rx="51" ry="17" /><g transform="translate(224.768723 29.338495) rotate(258.137176) scale(6.510332 42.229218)"><ellipse fill="#322e19" fill-opacity=".501961" cx="0" cy="0" rx="1" ry="1" /></g><g transform="translate(91.107934 27.663834) rotate(171.434266) scale(49.131377 21.855661)"><ellipse fill="#8bb7da" fill-opacity=".501961" cx="0" cy="0" rx="1" ry="1" /></g><ellipse fill="#4c82a6" fill-opacity=".501961" cx="115" cy="144" rx="56" ry="47" /></g></svg>