<svg xmlns="http://www.w3.org/2000/svg" viewBox="0 0 2619 3929"><filter id="b"><feGaussianBlur stdDeviation="12" /></filter><path d="M0 0h2619v3929H0z" fill="#6f878c" /><g filter="url(#b)" transform="scale(15.347656) translate(0.5 0.5)"><g transform="translate(87 21) rotate(1) scale(169 137)"><path d="M0 0h2619v3929H0z" fill="#87d8ff" /></g><ellipse fill="#000300" fill-opacity=".501961" cx="146" cy="118" rx="112" ry="15" /><ellipse fill="#65583a" fill-opacity=".501961" cx="35" cy="206" rx="138" ry="49" /><g transform="translate(86.326237 103.620934) rotate(77.591500) scale(12.756563 45.983891)"><ellipse fill="#12282b" fill-opacity=".501961" cx="0" cy="0" rx="1" ry="1" /></g><g transform="translate(3.700309 94.212261) rotate(316.753653) scale(53.180322 27.245300)"><ellipse fill="#a5daf8" fill-opacity=".501961" cx="0" cy="0" rx="1" ry="1" /></g><path d="M0 0h2619v3929H0z" fill="#0e0700" /><ellipse fill="#1e393f" fill-opacity=".501961" cx="64" cy="75" rx="6" ry="36" /><g transform="translate(139.665261 246.070051) rotate(116.800817) scale(29.986127 32.382061)"><ellipse fill="#b49893" fill-opacity=".501961" cx="0" cy="0" rx="1" ry="1" /></g></g></svg>