<svg xmlns="http://www.w3.org/2000/svg" viewBox="0 0 5649 3766"><filter id="b"><feGaussianBlur stdDeviation="12" /></filter><path d="M0 0h5649v3766H0z" fill="#6d7a85" /><g filter="url(#b)" transform="scale(22.066406) translate(0.5 0.5)"><g transform="translate(127.226180 115.276943) rotate(180.624589) scale(115.063615 34.005228)"><ellipse fill="#babab5" fill-opacity=".501961" cx="0" cy="0" rx="1" ry="1" /></g><g transform="translate(12.988069 152.736332) rotate(125.760835) scale(23.245728 29.191578)"><ellipse fill="#000" fill-opacity=".501961" cx="0" cy="0" rx="1" ry="1" /></g><g transform="translate(7.013145 0.000000) rotate(248.460227) scale(33.220731 60.189121)"><ellipse fill="#000" fill-opacity=".501961" cx="0" cy="0" rx="1" ry="1" /></g><g transform="translate(230.991403 156.131073) rotate(259.939252) scale(18.350123 190.051586)"><ellipse fill="#22212c" fill-opacity=".501961" cx="0" cy="0" rx="1" ry="1" /></g><g transform="translate(72.929487 60.003768) rotate(238.732389) scale(32.599574 22.460020)"><ellipse fill="#95c8dc" fill-opacity=".501961" cx="0" cy="0" rx="1" ry="1" /></g><ellipse fill="#22273b" fill-opacity=".501961" cx="245" cy="9" rx="32" ry="32" /><g transform="translate(162.177573 131.487722) rotate(196.303526) scale(22.258049 18.867762)"><ellipse fill="#e1e4d7" fill-opacity=".501961" cx="0" cy="0" rx="1" ry="1" /></g><g transform="translate(65.449118 149.298068) rotate(207.812087) scale(34.451197 16.382793)"><ellipse fill="#bcbfb0" fill-opacity=".501961" cx="0" cy="0" rx="1" ry="1" /></g></g></svg>